<mxfile host="Electron" modified="2023-12-10T22:53:00.584Z" agent="Mozilla/5.0 (Macintosh; Intel Mac OS X 10_15_7) AppleWebKit/537.36 (KHTML, like Gecko) draw.io/21.6.8 Chrome/114.0.5735.289 Electron/25.5.0 Safari/537.36" etag="oXSmI-Is4q4KjHG2gvB0" version="21.6.8" type="device">
  <diagram name="Page-1" id="dNMjxEWE6OLOWAnIZZ9g">
    <mxGraphModel dx="1333" dy="732" grid="1" gridSize="10" guides="1" tooltips="1" connect="1" arrows="1" fold="1" page="1" pageScale="1" pageWidth="850" pageHeight="1100" math="0" shadow="0">
      <root>
        <mxCell id="0" />
        <mxCell id="1" parent="0" />
        <mxCell id="4KngsPxyyKeknxrYJ8BE-71" value="Private subnet (10.0.4.0/24)" style="points=[[0,0],[0.25,0],[0.5,0],[0.75,0],[1,0],[1,0.25],[1,0.5],[1,0.75],[1,1],[0.75,1],[0.5,1],[0.25,1],[0,1],[0,0.75],[0,0.5],[0,0.25]];outlineConnect=0;gradientColor=none;html=1;whiteSpace=wrap;fontSize=12;fontStyle=0;container=1;pointerEvents=0;collapsible=0;recursiveResize=0;shape=mxgraph.aws4.group;grIcon=mxgraph.aws4.group_security_group;grStroke=0;strokeColor=#147EBA;fillColor=#E6F2F8;verticalAlign=top;align=left;spacingLeft=30;fontColor=#147EBA;dashed=0;" parent="1" vertex="1">
          <mxGeometry x="320" y="650" width="130" height="170" as="geometry" />
        </mxCell>
        <mxCell id="4KngsPxyyKeknxrYJ8BE-73" value="Private subnet (10.0.2.0/24)" style="points=[[0,0],[0.25,0],[0.5,0],[0.75,0],[1,0],[1,0.25],[1,0.5],[1,0.75],[1,1],[0.75,1],[0.5,1],[0.25,1],[0,1],[0,0.75],[0,0.5],[0,0.25]];outlineConnect=0;gradientColor=none;html=1;whiteSpace=wrap;fontSize=12;fontStyle=0;container=1;pointerEvents=0;collapsible=0;recursiveResize=0;shape=mxgraph.aws4.group;grIcon=mxgraph.aws4.group_security_group;grStroke=0;strokeColor=#147EBA;fillColor=#E6F2F8;verticalAlign=top;align=left;spacingLeft=30;fontColor=#147EBA;dashed=0;" parent="1" vertex="1">
          <mxGeometry x="320" y="415" width="130" height="170" as="geometry" />
        </mxCell>
        <mxCell id="4KngsPxyyKeknxrYJ8BE-5" value="AWS Cloud" style="points=[[0,0],[0.25,0],[0.5,0],[0.75,0],[1,0],[1,0.25],[1,0.5],[1,0.75],[1,1],[0.75,1],[0.5,1],[0.25,1],[0,1],[0,0.75],[0,0.5],[0,0.25]];outlineConnect=0;gradientColor=none;html=1;whiteSpace=wrap;fontSize=12;fontStyle=0;container=0;pointerEvents=0;collapsible=0;recursiveResize=0;shape=mxgraph.aws4.group;grIcon=mxgraph.aws4.group_aws_cloud_alt;strokeColor=#232F3E;fillColor=none;verticalAlign=top;align=left;spacingLeft=30;fontColor=#232F3E;dashed=0;" parent="1" vertex="1">
          <mxGeometry x="190" y="50" width="800" height="890" as="geometry" />
        </mxCell>
        <mxCell id="4KngsPxyyKeknxrYJ8BE-105" style="edgeStyle=orthogonalEdgeStyle;rounded=0;orthogonalLoop=1;jettySize=auto;html=1;" parent="1" source="4KngsPxyyKeknxrYJ8BE-100" target="4KngsPxyyKeknxrYJ8BE-73" edge="1">
          <mxGeometry relative="1" as="geometry">
            <mxPoint x="108" y="516" as="sourcePoint" />
            <mxPoint x="303" y="648" as="targetPoint" />
            <Array as="points">
              <mxPoint x="385" y="367" />
            </Array>
          </mxGeometry>
        </mxCell>
        <mxCell id="4KngsPxyyKeknxrYJ8BE-114" value="Users" style="sketch=0;outlineConnect=0;fontColor=#232F3E;gradientColor=none;strokeColor=#232F3E;fillColor=#ffffff;dashed=0;verticalLabelPosition=bottom;verticalAlign=top;align=center;html=1;fontSize=12;fontStyle=0;aspect=fixed;shape=mxgraph.aws4.resourceIcon;resIcon=mxgraph.aws4.users;" parent="1" vertex="1">
          <mxGeometry x="90" y="240" width="60" height="60" as="geometry" />
        </mxCell>
        <mxCell id="4KngsPxyyKeknxrYJ8BE-63" value="us-east-1" style="points=[[0,0],[0.25,0],[0.5,0],[0.75,0],[1,0],[1,0.25],[1,0.5],[1,0.75],[1,1],[0.75,1],[0.5,1],[0.25,1],[0,1],[0,0.75],[0,0.5],[0,0.25]];outlineConnect=0;gradientColor=none;html=1;whiteSpace=wrap;fontSize=12;fontStyle=0;container=1;pointerEvents=0;collapsible=0;recursiveResize=0;shape=mxgraph.aws4.group;grIcon=mxgraph.aws4.group_region;strokeColor=#147EBA;fillColor=none;verticalAlign=top;align=left;spacingLeft=30;fontColor=#147EBA;dashed=1;" parent="1" vertex="1">
          <mxGeometry x="230" y="80" width="710" height="830" as="geometry" />
        </mxCell>
        <mxCell id="4KngsPxyyKeknxrYJ8BE-69" value="Public subnet (10.0.0.0/24)" style="points=[[0,0],[0.25,0],[0.5,0],[0.75,0],[1,0],[1,0.25],[1,0.5],[1,0.75],[1,1],[0.75,1],[0.5,1],[0.25,1],[0,1],[0,0.75],[0,0.5],[0,0.25]];outlineConnect=0;gradientColor=none;html=1;whiteSpace=wrap;fontSize=12;fontStyle=0;container=1;pointerEvents=0;collapsible=0;recursiveResize=0;shape=mxgraph.aws4.group;grIcon=mxgraph.aws4.group_security_group;grStroke=0;strokeColor=#248814;fillColor=#E9F3E6;verticalAlign=top;align=left;spacingLeft=30;fontColor=#248814;dashed=0;" parent="4KngsPxyyKeknxrYJ8BE-63" vertex="1">
          <mxGeometry x="91" y="96.58000000000001" width="130" height="170" as="geometry" />
        </mxCell>
        <mxCell id="4KngsPxyyKeknxrYJ8BE-117" value="us-east-1b" style="fillColor=none;strokeColor=#147EBA;dashed=1;verticalAlign=top;fontStyle=0;fontColor=#147EBA;whiteSpace=wrap;html=1;" parent="4KngsPxyyKeknxrYJ8BE-63" vertex="1">
          <mxGeometry x="338.75" y="56.579999999999984" width="172.5" height="713.42" as="geometry" />
        </mxCell>
        <mxCell id="4KngsPxyyKeknxrYJ8BE-74" value="us-east-1a" style="fillColor=none;strokeColor=#147EBA;dashed=1;verticalAlign=top;fontStyle=0;fontColor=#147EBA;whiteSpace=wrap;html=1;" parent="4KngsPxyyKeknxrYJ8BE-63" vertex="1">
          <mxGeometry x="69.2" y="56.58" width="172.5" height="713.42" as="geometry" />
        </mxCell>
        <mxCell id="4KngsPxyyKeknxrYJ8BE-80" value="VPC" style="sketch=0;outlineConnect=0;gradientColor=none;html=1;whiteSpace=wrap;fontSize=12;fontStyle=0;shape=mxgraph.aws4.group;grIcon=mxgraph.aws4.group_vpc;strokeColor=#879196;fillColor=none;verticalAlign=top;align=left;spacingLeft=30;fontColor=#879196;dashed=0;" parent="4KngsPxyyKeknxrYJ8BE-63" vertex="1">
          <mxGeometry x="30" y="30" width="520" height="770" as="geometry" />
        </mxCell>
        <mxCell id="4KngsPxyyKeknxrYJ8BE-83" value="Private subnet (10.0.5.0/24)" style="points=[[0,0],[0.25,0],[0.5,0],[0.75,0],[1,0],[1,0.25],[1,0.5],[1,0.75],[1,1],[0.75,1],[0.5,1],[0.25,1],[0,1],[0,0.75],[0,0.5],[0,0.25]];outlineConnect=0;gradientColor=none;html=1;whiteSpace=wrap;fontSize=12;fontStyle=0;container=1;pointerEvents=0;collapsible=0;recursiveResize=0;shape=mxgraph.aws4.group;grIcon=mxgraph.aws4.group_security_group;grStroke=0;strokeColor=#147EBA;fillColor=#E6F2F8;verticalAlign=top;align=left;spacingLeft=30;fontColor=#147EBA;dashed=0;" parent="4KngsPxyyKeknxrYJ8BE-63" vertex="1">
          <mxGeometry x="360" y="570" width="130" height="170" as="geometry" />
        </mxCell>
        <mxCell id="4KngsPxyyKeknxrYJ8BE-92" value="&lt;div style=&quot;font-size: 1px&quot;&gt;&lt;p style=&quot;align:center;margin-left:0;margin-right:0;margin-top:0px;margin-bottom:0px;text-indent:0;valign:middle;direction:ltr;&quot;&gt;&lt;font style=&quot;font-size:14.11px;font-family:Arial;color:#3a414a;direction:ltr;letter-spacing:0px;line-height:100%;opacity:1&quot;&gt;Amazon DocumentDB&lt;/font&gt;&lt;/p&gt;&lt;/div&gt;" style="text;vsdxID=62;fillColor=none;gradientColor=none;strokeColor=none;spacingTop=-3;spacingBottom=-3;spacingLeft=-3;spacingRight=-3;points=[[0,0.5,0],[1,0.5,0],[0.5,1,0],[0.5,0,0],[0,1,0]];labelBackgroundColor=none;rounded=1;html=1;whiteSpace=wrap;verticalAlign=middle;align=center;;html=1;" parent="4KngsPxyyKeknxrYJ8BE-83" vertex="1">
          <mxGeometry x="14.200000000000045" y="124" width="101.6" height="28.58" as="geometry" />
        </mxCell>
        <mxCell id="4KngsPxyyKeknxrYJ8BE-85" value="" style="sketch=0;points=[[0,0,0],[0.25,0,0],[0.5,0,0],[0.75,0,0],[1,0,0],[0,1,0],[0.25,1,0],[0.5,1,0],[0.75,1,0],[1,1,0],[0,0.25,0],[0,0.5,0],[0,0.75,0],[1,0.25,0],[1,0.5,0],[1,0.75,0]];outlineConnect=0;fontColor=#232F3E;gradientColor=#F54749;gradientDirection=north;fillColor=#C7131F;strokeColor=#ffffff;dashed=0;verticalLabelPosition=bottom;verticalAlign=top;align=center;html=1;fontSize=12;fontStyle=0;aspect=fixed;shape=mxgraph.aws4.resourceIcon;resIcon=mxgraph.aws4.secrets_manager;" parent="4KngsPxyyKeknxrYJ8BE-63" vertex="1">
          <mxGeometry x="591.8" y="210" width="78" height="78" as="geometry" />
        </mxCell>
        <mxCell id="4KngsPxyyKeknxrYJ8BE-86" value="" style="sketch=0;points=[[0,0,0],[0.25,0,0],[0.5,0,0],[0.75,0,0],[1,0,0],[0,1,0],[0.25,1,0],[0.5,1,0],[0.75,1,0],[1,1,0],[0,0.25,0],[0,0.5,0],[0,0.75,0],[1,0.25,0],[1,0.5,0],[1,0.75,0]];outlineConnect=0;fontColor=#232F3E;gradientColor=#F78E04;gradientDirection=north;fillColor=#D05C17;strokeColor=#ffffff;dashed=0;verticalLabelPosition=bottom;verticalAlign=top;align=center;html=1;fontSize=12;fontStyle=0;aspect=fixed;shape=mxgraph.aws4.resourceIcon;resIcon=mxgraph.aws4.ecr;" parent="4KngsPxyyKeknxrYJ8BE-63" vertex="1">
          <mxGeometry x="591.8" y="338.58000000000004" width="78" height="78" as="geometry" />
        </mxCell>
        <mxCell id="4KngsPxyyKeknxrYJ8BE-87" value="&lt;div style=&quot;font-size: 1px&quot;&gt;&lt;p style=&quot;align:center;margin-left:0;margin-right:0;margin-top:0px;margin-bottom:0px;text-indent:0;valign:middle;direction:ltr;&quot;&gt;&lt;font style=&quot;font-size:14.11px;font-family:Arial;color:#3a414a;direction:ltr;letter-spacing:0px;line-height:100%;opacity:1&quot;&gt;AWS Secrets Manager&lt;/font&gt;&lt;/p&gt;&lt;/div&gt;" style="text;vsdxID=62;fillColor=none;gradientColor=none;strokeColor=none;spacingTop=-3;spacingBottom=-3;spacingLeft=-3;spacingRight=-3;points=[[0,0.5,0],[1,0.5,0],[0.5,1,0],[0.5,0,0],[0,1,0]];labelBackgroundColor=none;rounded=1;html=1;whiteSpace=wrap;verticalAlign=middle;align=center;;html=1;" parent="4KngsPxyyKeknxrYJ8BE-63" vertex="1">
          <mxGeometry x="580" y="288" width="101.6" height="28.58" as="geometry" />
        </mxCell>
        <mxCell id="4KngsPxyyKeknxrYJ8BE-88" value="" style="sketch=0;points=[[0,0,0],[0.25,0,0],[0.5,0,0],[0.75,0,0],[1,0,0],[0,1,0],[0.25,1,0],[0.5,1,0],[0.75,1,0],[1,1,0],[0,0.25,0],[0,0.5,0],[0,0.75,0],[1,0.25,0],[1,0.5,0],[1,0.75,0]];outlineConnect=0;fontColor=#232F3E;gradientColor=#F54749;gradientDirection=north;fillColor=#C7131F;strokeColor=#ffffff;dashed=0;verticalLabelPosition=bottom;verticalAlign=top;align=center;html=1;fontSize=12;fontStyle=0;aspect=fixed;shape=mxgraph.aws4.resourceIcon;resIcon=mxgraph.aws4.identity_and_access_management;" parent="4KngsPxyyKeknxrYJ8BE-63" vertex="1">
          <mxGeometry x="591.8" y="458" width="78" height="78" as="geometry" />
        </mxCell>
        <mxCell id="4KngsPxyyKeknxrYJ8BE-90" value="&lt;div style=&quot;font-size: 1px&quot;&gt;&lt;p style=&quot;align:center;margin-left:0;margin-right:0;margin-top:0px;margin-bottom:0px;text-indent:0;valign:middle;direction:ltr;&quot;&gt;&lt;font style=&quot;font-size:14.11px;font-family:Arial;color:#3a414a;direction:ltr;letter-spacing:0px;line-height:100%;opacity:1&quot;&gt;Amazon ECS&lt;/font&gt;&lt;/p&gt;&lt;/div&gt;" style="text;vsdxID=62;fillColor=none;gradientColor=none;strokeColor=none;spacingTop=-3;spacingBottom=-3;spacingLeft=-3;spacingRight=-3;points=[[0,0.5,0],[1,0.5,0],[0.5,1,0],[0.5,0,0],[0,1,0]];labelBackgroundColor=none;rounded=1;html=1;whiteSpace=wrap;verticalAlign=middle;align=center;;html=1;" parent="4KngsPxyyKeknxrYJ8BE-63" vertex="1">
          <mxGeometry x="105.20000000000005" y="458" width="101.6" height="28.58" as="geometry" />
        </mxCell>
        <mxCell id="4KngsPxyyKeknxrYJ8BE-91" value="&lt;div style=&quot;font-size: 1px&quot;&gt;&lt;p style=&quot;align:center;margin-left:0;margin-right:0;margin-top:0px;margin-bottom:0px;text-indent:0;valign:middle;direction:ltr;&quot;&gt;&lt;font style=&quot;font-size:14.11px;font-family:Arial;color:#3a414a;direction:ltr;letter-spacing:0px;line-height:100%;opacity:1&quot;&gt;Amazon DocumentDB&lt;/font&gt;&lt;/p&gt;&lt;/div&gt;" style="text;vsdxID=62;fillColor=none;gradientColor=none;strokeColor=none;spacingTop=-3;spacingBottom=-3;spacingLeft=-3;spacingRight=-3;points=[[0,0.5,0],[1,0.5,0],[0.5,1,0],[0.5,0,0],[0,1,0]];labelBackgroundColor=none;rounded=1;html=1;whiteSpace=wrap;verticalAlign=middle;align=center;;html=1;" parent="4KngsPxyyKeknxrYJ8BE-63" vertex="1">
          <mxGeometry x="105.20000000000005" y="694" width="101.6" height="28.58" as="geometry" />
        </mxCell>
        <mxCell id="4KngsPxyyKeknxrYJ8BE-98" value="" style="sketch=0;outlineConnect=0;fontColor=#232F3E;gradientColor=none;fillColor=#4D27AA;strokeColor=none;dashed=0;verticalLabelPosition=bottom;verticalAlign=top;align=center;html=1;fontSize=12;fontStyle=0;aspect=fixed;pointerEvents=1;shape=mxgraph.aws4.internet_gateway;" parent="4KngsPxyyKeknxrYJ8BE-63" vertex="1">
          <mxGeometry x="270" y="40" width="40" height="40" as="geometry" />
        </mxCell>
        <mxCell id="4KngsPxyyKeknxrYJ8BE-99" value="&lt;div style=&quot;font-size: 1px&quot;&gt;&lt;p style=&quot;align:center;margin-left:0;margin-right:0;margin-top:0px;margin-bottom:0px;text-indent:0;valign:middle;direction:ltr;&quot;&gt;&lt;font style=&quot;font-size:14.11px;font-family:Arial;color:#3a414a;direction:ltr;letter-spacing:0px;line-height:100%;opacity:1&quot;&gt;Internet&amp;nbsp;&lt;/font&gt;&lt;/p&gt;&lt;p style=&quot;align:center;margin-left:0;margin-right:0;margin-top:0px;margin-bottom:0px;text-indent:0;valign:middle;direction:ltr;&quot;&gt;&lt;font style=&quot;font-size:14.11px;font-family:Arial;color:#3a414a;direction:ltr;letter-spacing:0px;line-height:100%;opacity:1&quot;&gt;gateway&lt;/font&gt;&lt;/p&gt;&lt;/div&gt;" style="text;vsdxID=62;fillColor=none;gradientColor=none;strokeColor=none;spacingTop=-3;spacingBottom=-3;spacingLeft=-3;spacingRight=-3;points=[[0,0.5,0],[1,0.5,0],[0.5,1,0],[0.5,0,0],[0,1,0]];labelBackgroundColor=none;rounded=1;html=1;whiteSpace=wrap;verticalAlign=middle;align=center;;html=1;" parent="4KngsPxyyKeknxrYJ8BE-63" vertex="1">
          <mxGeometry x="241.70000000000005" y="82.83999999999995" width="101.6" height="28.58" as="geometry" />
        </mxCell>
        <mxCell id="4KngsPxyyKeknxrYJ8BE-100" value="" style="sketch=0;outlineConnect=0;fontColor=#232F3E;gradientColor=none;fillColor=#4D27AA;strokeColor=none;dashed=0;verticalLabelPosition=bottom;verticalAlign=top;align=center;html=1;fontSize=12;fontStyle=0;aspect=fixed;pointerEvents=1;shape=mxgraph.aws4.application_load_balancer;" parent="4KngsPxyyKeknxrYJ8BE-63" vertex="1">
          <mxGeometry x="272.5" y="266.58" width="40" height="40" as="geometry" />
        </mxCell>
        <mxCell id="4KngsPxyyKeknxrYJ8BE-101" value="&lt;div style=&quot;&quot;&gt;&lt;p style=&quot;margin: 0px; text-indent: 0px; direction: ltr;&quot;&gt;&lt;font face=&quot;Arial&quot; color=&quot;#3a414a&quot;&gt;&lt;span style=&quot;font-size: 14.11px;&quot;&gt;Application&lt;/span&gt;&lt;/font&gt;&lt;/p&gt;&lt;p style=&quot;margin: 0px; text-indent: 0px; direction: ltr;&quot;&gt;&lt;font face=&quot;Arial&quot; color=&quot;#3a414a&quot;&gt;&lt;span style=&quot;font-size: 14.11px;&quot;&gt;Load Balancer&lt;/span&gt;&lt;/font&gt;&lt;/p&gt;&lt;/div&gt;" style="text;vsdxID=62;fillColor=none;gradientColor=none;strokeColor=none;spacingTop=-3;spacingBottom=-3;spacingLeft=-3;spacingRight=-3;points=[[0,0.5,0],[1,0.5,0],[0.5,1,0],[0.5,0,0],[0,1,0]];labelBackgroundColor=none;rounded=1;html=1;whiteSpace=wrap;verticalAlign=middle;align=center;;html=1;" parent="4KngsPxyyKeknxrYJ8BE-63" vertex="1">
          <mxGeometry x="239.20000000000005" y="309.99999999999994" width="101.6" height="28.58" as="geometry" />
        </mxCell>
        <mxCell id="4KngsPxyyKeknxrYJ8BE-72" value="Private subnet (10.0.3.0/24)" style="points=[[0,0],[0.25,0],[0.5,0],[0.75,0],[1,0],[1,0.25],[1,0.5],[1,0.75],[1,1],[0.75,1],[0.5,1],[0.25,1],[0,1],[0,0.75],[0,0.5],[0,0.25]];outlineConnect=0;gradientColor=none;html=1;whiteSpace=wrap;fontSize=12;fontStyle=0;container=1;pointerEvents=0;collapsible=0;recursiveResize=0;shape=mxgraph.aws4.group;grIcon=mxgraph.aws4.group_security_group;grStroke=0;strokeColor=#147EBA;fillColor=#E6F2F8;verticalAlign=top;align=left;spacingLeft=30;fontColor=#147EBA;dashed=0;" parent="4KngsPxyyKeknxrYJ8BE-63" vertex="1">
          <mxGeometry x="360" y="334" width="130" height="170" as="geometry" />
        </mxCell>
        <mxCell id="4KngsPxyyKeknxrYJ8BE-89" value="&lt;div style=&quot;font-size: 1px&quot;&gt;&lt;p style=&quot;align:center;margin-left:0;margin-right:0;margin-top:0px;margin-bottom:0px;text-indent:0;valign:middle;direction:ltr;&quot;&gt;&lt;font style=&quot;font-size:14.11px;font-family:Arial;color:#3a414a;direction:ltr;letter-spacing:0px;line-height:100%;opacity:1&quot;&gt;Amazon ECS&lt;/font&gt;&lt;/p&gt;&lt;/div&gt;" style="text;vsdxID=62;fillColor=none;gradientColor=none;strokeColor=none;spacingTop=-3;spacingBottom=-3;spacingLeft=-3;spacingRight=-3;points=[[0,0.5,0],[1,0.5,0],[0.5,1,0],[0.5,0,0],[0,1,0]];labelBackgroundColor=none;rounded=1;html=1;whiteSpace=wrap;verticalAlign=middle;align=center;;html=1;" parent="4KngsPxyyKeknxrYJ8BE-72" vertex="1">
          <mxGeometry x="14.200000000000045" y="122" width="101.6" height="28.58" as="geometry" />
        </mxCell>
        <mxCell id="4KngsPxyyKeknxrYJ8BE-70" value="Public subnet (10.0.1.0/24)" style="points=[[0,0],[0.25,0],[0.5,0],[0.75,0],[1,0],[1,0.25],[1,0.5],[1,0.75],[1,1],[0.75,1],[0.5,1],[0.25,1],[0,1],[0,0.75],[0,0.5],[0,0.25]];outlineConnect=0;gradientColor=none;html=1;whiteSpace=wrap;fontSize=12;fontStyle=0;container=1;pointerEvents=0;collapsible=0;recursiveResize=0;shape=mxgraph.aws4.group;grIcon=mxgraph.aws4.group_security_group;grStroke=0;strokeColor=#248814;fillColor=#E9F3E6;verticalAlign=top;align=left;spacingLeft=30;fontColor=#248814;dashed=0;" parent="4KngsPxyyKeknxrYJ8BE-63" vertex="1">
          <mxGeometry x="360" y="96.57999999999998" width="130" height="170" as="geometry" />
        </mxCell>
        <mxCell id="4KngsPxyyKeknxrYJ8BE-93" value="&lt;div style=&quot;font-size: 1px&quot;&gt;&lt;p style=&quot;align:center;margin-left:0;margin-right:0;margin-top:0px;margin-bottom:0px;text-indent:0;valign:middle;direction:ltr;&quot;&gt;&lt;font style=&quot;font-size:14.11px;font-family:Arial;color:#3a414a;direction:ltr;letter-spacing:0px;line-height:100%;opacity:1&quot;&gt;NAT gateway&lt;/font&gt;&lt;/p&gt;&lt;/div&gt;" style="text;vsdxID=62;fillColor=none;gradientColor=none;strokeColor=none;spacingTop=-3;spacingBottom=-3;spacingLeft=-3;spacingRight=-3;points=[[0,0.5,0],[1,0.5,0],[0.5,1,0],[0.5,0,0],[0,1,0]];labelBackgroundColor=none;rounded=1;html=1;whiteSpace=wrap;verticalAlign=middle;align=center;;html=1;" parent="4KngsPxyyKeknxrYJ8BE-70" vertex="1">
          <mxGeometry x="-254.79999999999995" y="123.99999999999996" width="101.6" height="28.58" as="geometry" />
        </mxCell>
        <mxCell id="4KngsPxyyKeknxrYJ8BE-75" value="" style="sketch=0;outlineConnect=0;fontColor=#232F3E;gradientColor=none;fillColor=#4D27AA;strokeColor=none;dashed=0;verticalLabelPosition=bottom;verticalAlign=top;align=center;html=1;fontSize=12;fontStyle=0;aspect=fixed;pointerEvents=1;shape=mxgraph.aws4.nat_gateway;" parent="4KngsPxyyKeknxrYJ8BE-70" vertex="1">
          <mxGeometry x="-233.75" y="55.25" width="59.5" height="59.5" as="geometry" />
        </mxCell>
        <mxCell id="gw4l_MfiF_VJC93Sm4Fi-6" value="" style="sketch=0;points=[[0,0,0],[0.25,0,0],[0.5,0,0],[0.75,0,0],[1,0,0],[0,1,0],[0.25,1,0],[0.5,1,0],[0.75,1,0],[1,1,0],[0,0.25,0],[0,0.5,0],[0,0.75,0],[1,0.25,0],[1,0.5,0],[1,0.75,0]];outlineConnect=0;fontColor=#232F3E;gradientColor=#F78E04;gradientDirection=north;fillColor=#D05C17;strokeColor=#ffffff;dashed=0;verticalLabelPosition=bottom;verticalAlign=top;align=center;html=1;fontSize=12;fontStyle=0;aspect=fixed;shape=mxgraph.aws4.resourceIcon;resIcon=mxgraph.aws4.ec2;" vertex="1" parent="4KngsPxyyKeknxrYJ8BE-70">
          <mxGeometry x="26" y="55.25000000000003" width="78" height="78" as="geometry" />
        </mxCell>
        <mxCell id="gw4l_MfiF_VJC93Sm4Fi-7" value="&lt;div style=&quot;font-size: 1px&quot;&gt;&lt;p style=&quot;align:center;margin-left:0;margin-right:0;margin-top:0px;margin-bottom:0px;text-indent:0;valign:middle;direction:ltr;&quot;&gt;&lt;font style=&quot;font-size:14.11px;font-family:Arial;color:#3a414a;direction:ltr;letter-spacing:0px;line-height:100%;opacity:1&quot;&gt;Bastion Host&lt;/font&gt;&lt;/p&gt;&lt;/div&gt;" style="text;vsdxID=62;fillColor=none;gradientColor=none;strokeColor=none;spacingTop=-3;spacingBottom=-3;spacingLeft=-3;spacingRight=-3;points=[[0,0.5,0],[1,0.5,0],[0.5,1,0],[0.5,0,0],[0,1,0]];labelBackgroundColor=none;rounded=1;html=1;whiteSpace=wrap;verticalAlign=middle;align=center;;html=1;" vertex="1" parent="4KngsPxyyKeknxrYJ8BE-70">
          <mxGeometry x="14.200000000000045" y="133.25000000000006" width="101.6" height="28.58" as="geometry" />
        </mxCell>
        <mxCell id="4KngsPxyyKeknxrYJ8BE-107" style="edgeStyle=orthogonalEdgeStyle;rounded=0;orthogonalLoop=1;jettySize=auto;html=1;entryX=0.5;entryY=0;entryDx=0;entryDy=0;" parent="4KngsPxyyKeknxrYJ8BE-63" source="4KngsPxyyKeknxrYJ8BE-100" target="4KngsPxyyKeknxrYJ8BE-72" edge="1">
          <mxGeometry relative="1" as="geometry">
            <Array as="points" />
            <mxPoint x="290" y="747.86" as="sourcePoint" />
            <mxPoint x="433.3666666666666" y="339.93" as="targetPoint" />
          </mxGeometry>
        </mxCell>
        <mxCell id="4KngsPxyyKeknxrYJ8BE-111" value="" style="endArrow=classic;html=1;rounded=0;" parent="4KngsPxyyKeknxrYJ8BE-63" edge="1">
          <mxGeometry width="50" height="50" relative="1" as="geometry">
            <mxPoint x="155.33000000000004" y="504" as="sourcePoint" />
            <mxPoint x="155" y="570" as="targetPoint" />
          </mxGeometry>
        </mxCell>
        <mxCell id="4KngsPxyyKeknxrYJ8BE-112" value="" style="endArrow=classic;html=1;rounded=0;" parent="4KngsPxyyKeknxrYJ8BE-63" edge="1">
          <mxGeometry width="50" height="50" relative="1" as="geometry">
            <mxPoint x="424.6600000000001" y="504" as="sourcePoint" />
            <mxPoint x="424.3299999999999" y="570" as="targetPoint" />
          </mxGeometry>
        </mxCell>
        <mxCell id="4KngsPxyyKeknxrYJ8BE-118" value="&lt;div style=&quot;&quot;&gt;&lt;p style=&quot;margin: 0px; text-indent: 0px; direction: ltr;&quot;&gt;&lt;font face=&quot;Arial&quot; color=&quot;#3a414a&quot;&gt;&lt;span style=&quot;font-size: 14.11px;&quot;&gt;Amazon ECR&lt;/span&gt;&lt;/font&gt;&lt;/p&gt;&lt;/div&gt;" style="text;vsdxID=62;fillColor=none;gradientColor=none;strokeColor=none;spacingTop=-3;spacingBottom=-3;spacingLeft=-3;spacingRight=-3;points=[[0,0.5,0],[1,0.5,0],[0.5,1,0],[0.5,0,0],[0,1,0]];labelBackgroundColor=none;rounded=1;html=1;whiteSpace=wrap;verticalAlign=middle;align=center;;html=1;" parent="4KngsPxyyKeknxrYJ8BE-63" vertex="1">
          <mxGeometry x="580" y="414.5799999999999" width="101.6" height="28.58" as="geometry" />
        </mxCell>
        <mxCell id="4KngsPxyyKeknxrYJ8BE-119" value="&lt;div style=&quot;&quot;&gt;&lt;p style=&quot;margin: 0px; text-indent: 0px; direction: ltr;&quot;&gt;&lt;font face=&quot;Arial&quot; color=&quot;#3a414a&quot;&gt;&lt;span style=&quot;font-size: 14.11px;&quot;&gt;Amazon IAM&lt;/span&gt;&lt;/font&gt;&lt;/p&gt;&lt;/div&gt;" style="text;vsdxID=62;fillColor=none;gradientColor=none;strokeColor=none;spacingTop=-3;spacingBottom=-3;spacingLeft=-3;spacingRight=-3;points=[[0,0.5,0],[1,0.5,0],[0.5,1,0],[0.5,0,0],[0,1,0]];labelBackgroundColor=none;rounded=1;html=1;whiteSpace=wrap;verticalAlign=middle;align=center;;html=1;" parent="4KngsPxyyKeknxrYJ8BE-63" vertex="1">
          <mxGeometry x="580" y="536" width="101.6" height="28.58" as="geometry" />
        </mxCell>
        <mxCell id="4KngsPxyyKeknxrYJ8BE-126" value="" style="endArrow=classic;html=1;rounded=0;" parent="4KngsPxyyKeknxrYJ8BE-63" edge="1">
          <mxGeometry width="50" height="50" relative="1" as="geometry">
            <mxPoint x="591.8" y="248.60000000000002" as="sourcePoint" />
            <mxPoint x="551.8" y="248.60000000000002" as="targetPoint" />
          </mxGeometry>
        </mxCell>
        <mxCell id="4KngsPxyyKeknxrYJ8BE-127" value="" style="endArrow=classic;html=1;rounded=0;" parent="4KngsPxyyKeknxrYJ8BE-63" edge="1">
          <mxGeometry width="50" height="50" relative="1" as="geometry">
            <mxPoint x="591.8" y="380" as="sourcePoint" />
            <mxPoint x="551.8" y="380" as="targetPoint" />
          </mxGeometry>
        </mxCell>
        <mxCell id="4KngsPxyyKeknxrYJ8BE-128" value="" style="endArrow=classic;html=1;rounded=0;" parent="4KngsPxyyKeknxrYJ8BE-63" edge="1">
          <mxGeometry width="50" height="50" relative="1" as="geometry">
            <mxPoint x="591.8" y="496.6" as="sourcePoint" />
            <mxPoint x="551.8" y="496.6" as="targetPoint" />
          </mxGeometry>
        </mxCell>
        <mxCell id="4_8X8kdxFPePiO15PJ0L-2" value="" style="sketch=0;points=[[0,0,0],[0.25,0,0],[0.5,0,0],[0.75,0,0],[1,0,0],[0,1,0],[0.25,1,0],[0.5,1,0],[0.75,1,0],[1,1,0],[0,0.25,0],[0,0.5,0],[0,0.75,0],[1,0.25,0],[1,0.5,0],[1,0.75,0]];outlineConnect=0;fontColor=#232F3E;gradientColor=#F78E04;gradientDirection=north;fillColor=#D05C17;strokeColor=#ffffff;dashed=0;verticalLabelPosition=bottom;verticalAlign=top;align=center;html=1;fontSize=12;fontStyle=0;aspect=fixed;shape=mxgraph.aws4.resourceIcon;resIcon=mxgraph.aws4.ecs;" parent="4KngsPxyyKeknxrYJ8BE-63" vertex="1">
          <mxGeometry x="116.44999999999999" y="380" width="78" height="78" as="geometry" />
        </mxCell>
        <mxCell id="4_8X8kdxFPePiO15PJ0L-1" value="" style="sketch=0;points=[[0,0,0],[0.25,0,0],[0.5,0,0],[0.75,0,0],[1,0,0],[0,1,0],[0.25,1,0],[0.5,1,0],[0.75,1,0],[1,1,0],[0,0.25,0],[0,0.5,0],[0,0.75,0],[1,0.25,0],[1,0.5,0],[1,0.75,0]];outlineConnect=0;fontColor=#232F3E;gradientColor=#F78E04;gradientDirection=north;fillColor=#D05C17;strokeColor=#ffffff;dashed=0;verticalLabelPosition=bottom;verticalAlign=top;align=center;html=1;fontSize=12;fontStyle=0;aspect=fixed;shape=mxgraph.aws4.resourceIcon;resIcon=mxgraph.aws4.ecs;" parent="4KngsPxyyKeknxrYJ8BE-63" vertex="1">
          <mxGeometry x="386" y="380" width="78" height="78" as="geometry" />
        </mxCell>
        <mxCell id="i6223egCj4m1ZTvvv_4e-1" value="" style="sketch=0;points=[[0,0,0],[0.25,0,0],[0.5,0,0],[0.75,0,0],[1,0,0],[0,1,0],[0.25,1,0],[0.5,1,0],[0.75,1,0],[1,1,0],[0,0.25,0],[0,0.5,0],[0,0.75,0],[1,0.25,0],[1,0.5,0],[1,0.75,0]];outlineConnect=0;fontColor=#232F3E;gradientColor=#4D72F3;gradientDirection=north;fillColor=#3334B9;strokeColor=#ffffff;dashed=0;verticalLabelPosition=bottom;verticalAlign=top;align=center;html=1;fontSize=12;fontStyle=0;aspect=fixed;shape=mxgraph.aws4.resourceIcon;resIcon=mxgraph.aws4.documentdb_with_mongodb_compatibility;" parent="4KngsPxyyKeknxrYJ8BE-63" vertex="1">
          <mxGeometry x="116.45" y="616" width="78" height="78" as="geometry" />
        </mxCell>
        <mxCell id="i6223egCj4m1ZTvvv_4e-2" value="" style="sketch=0;points=[[0,0,0],[0.25,0,0],[0.5,0,0],[0.75,0,0],[1,0,0],[0,1,0],[0.25,1,0],[0.5,1,0],[0.75,1,0],[1,1,0],[0,0.25,0],[0,0.5,0],[0,0.75,0],[1,0.25,0],[1,0.5,0],[1,0.75,0]];outlineConnect=0;fontColor=#232F3E;gradientColor=#4D72F3;gradientDirection=north;fillColor=#3334B9;strokeColor=#ffffff;dashed=0;verticalLabelPosition=bottom;verticalAlign=top;align=center;html=1;fontSize=12;fontStyle=0;aspect=fixed;shape=mxgraph.aws4.resourceIcon;resIcon=mxgraph.aws4.documentdb_with_mongodb_compatibility;" parent="4KngsPxyyKeknxrYJ8BE-63" vertex="1">
          <mxGeometry x="386" y="616" width="78" height="78" as="geometry" />
        </mxCell>
        <mxCell id="2CO0WkZjvYCx62Hysczg-1" style="edgeStyle=orthogonalEdgeStyle;rounded=0;orthogonalLoop=1;jettySize=auto;html=1;" parent="1" target="4KngsPxyyKeknxrYJ8BE-100" edge="1">
          <mxGeometry relative="1" as="geometry">
            <Array as="points">
              <mxPoint x="120" y="360" />
            </Array>
            <mxPoint x="120" y="330" as="sourcePoint" />
            <mxPoint x="522" y="346.58" as="targetPoint" />
          </mxGeometry>
        </mxCell>
      </root>
    </mxGraphModel>
  </diagram>
</mxfile>
